# xmcd
#
# Track frame offsets: 
#        150
#        19897
#        34080
#        50292
#        61047
#        91083
#        109840
#        134234
#        152676
#        172171
#        196918
#        215163
#        244372
#        266683
#        288226
#        309125
#
# Disc length: 4458 seconds
#
# Revision: 2
# Processed by: cddbd v1.5.2PL0 Copyright (c) Steve Scherf et al.
# Submitted via: ExactAudioCopy v0.99pb4
#
DISCID=e6116810
DTITLE=Various Artist - Solid Gold Collection Salsa CD2
DYEAR=2005
DGENRE=Salsa
TTITLE0=Danza Latina - Oye Como Va
TTITLE1=Danza Latina - Ran Kan Kan
TTITLE2=Danza Latina - Mambo No. 5
TTITLE3=Grupo Fresca - Guaglione
TTITLE4=Ritmo alegria - Desengados De La Vida
TTITLE5=Ritmo alegria - Mueve La Cintura
TTITLE6=Ritmo alegria - De Verdad
TTITLE7=Ritmo alegria - Bongo
TTITLE8=Ritmo alegria - Marchando Bien
TTITLE9=Ritmo alegria - Asi Se Compone Un Son
TTITLE10=Ritmo alegria - El Hospital Del Amor
TTITLE11=Ritmo alegria - Boliviana
TTITLE12=Ritmo alegria - Fuego Caribe
TTITLE13=Ritmo alegria - Pancho Fantasia
TTITLE14=Ritmo alegria - El Muneco
TTITLE15=Ritmo alegria - Vino Anejo
EXTD=YEAR: 2005
EXTT0=
EXTT1=
EXTT2=
EXTT3=
EXTT4=
EXTT5=
EXTT6=
EXTT7=
EXTT8=
EXTT9=
EXTT10=
EXTT11=
EXTT12=
EXTT13=
EXTT14=
EXTT15=
PLAYORDER=
